<?xml version="1.0" encoding="UTF-8" standalone="no"?>
<svg xmlns="http://www.w3.org/2000/svg" width="700" height="300" viewBox="0 0 700 300">
<defs>
<marker id="arrow" viewBox="0 0 10 10" refX="10" refY="5" markerUnits="strokeWidth" markerWidth="8" markerHeight="6" orient="auto">
<path d="M0,0 L10,5 L0,10 Z" fill="#000"/>
</marker>
</defs>
<g transform="translate(20,20)">
<rect width="300" height="105" fill="none" stroke="#000"/>
<text x="150" y="18" text-anchor="middle" font-family="Arial" font-size="14">AppMsg_t</text>
<line x1="0" y1="25" x2="300" y2="25" stroke="#000"/>
<line x1="0" y1="45" x2="300" y2="45" stroke="#000"/>
<text x="10" y="40" font-family="Arial" font-size="12">uint8_t size</text>
<text x="275" y="40" font-family="Arial" font-size="12">8b</text>
<line x1="0" y1="65" x2="300" y2="65" stroke="#000"/>
<text x="10" y="60" font-family="Arial" font-size="12">AppMsgType_t msgType</text>
<text x="275" y="60" font-family="Arial" font-size="12">8b</text>
<line x1="0" y1="85" x2="300" y2="85" stroke="#000"/>
<text x="10" y="80" font-family="Arial" font-size="12">uint8_t sleep</text>
<text x="275" y="80" font-family="Arial" font-size="12">8b</text>
<line x1="0" y1="105" x2="300" y2="105" stroke="#000"/>
<text x="10" y="100" font-family="Arial" font-size="12">uint8_t *data</text>
<text x="275" y="100" font-family="Arial" font-size="12">8b</text>
</g>
<g transform="translate(350,20)">
<rect width="300" height="275" fill="none" stroke="#000"/>
<text x="150" y="18" text-anchor="middle" font-family="Arial" font-size="14">NWK_DataReq_t</text>
<line x1="0" y1="35" x2="300" y2="35" stroke="#000"/>
<text x="10" y="30" font-family="Arial" font-size="12">void *next</text>
<text x="275" y="30" font-family="Arial" font-size="12">16b</text>
<line x1="0" y1="55" x2="300" y2="55" stroke="#000"/>
<text x="10" y="50" font-family="Arial" font-size="12">void *frame</text>
<text x="275" y="50" font-family="Arial" font-size="12">16b</text>
<line x1="0" y1="75" x2="300" y2="75" stroke="#000"/>
<text x="10" y="70" font-family="Arial" font-size="12">uint8_t state</text>
<text x="275" y="70" font-family="Arial" font-size="12">8b</text>
<line x1="0" y1="95" x2="300" y2="95" stroke="#000"/>
<text x="10" y="90" font-family="Arial" font-size="12">uint16_t dstAddr</text>
<text x="275" y="90" font-family="Arial" font-size="12">16b</text>
<line x1="0" y1="115" x2="300" y2="115" stroke="#000"/>
<text x="10" y="110" font-family="Arial" font-size="12">uint8_t dstEndpoint</text>
<text x="275" y="110" font-family="Arial" font-size="12">8b</text>
<line x1="0" y1="135" x2="300" y2="135" stroke="#000"/>
<text x="10" y="130" font-family="Arial" font-size="12">uint8_t srcEndpoint</text>
<text x="275" y="130" font-family="Arial" font-size="12">8b</text>
<line x1="0" y1="155" x2="300" y2="155" stroke="#000"/>
<text x="10" y="150" font-family="Arial" font-size="12">uint8_t options</text>
<text x="275" y="150" font-family="Arial" font-size="12">8b</text>
<line x1="0" y1="175" x2="300" y2="175" stroke="#000"/>
<text x="10" y="170" font-family="Arial" font-size="12">AppMsg_t *data</text>
<text x="275" y="170" font-family="Arial" font-size="12">16b</text>
<line x1="0" y1="195" x2="300" y2="195" stroke="#000"/>
<text x="10" y="190" font-family="Arial" font-size="12">uint8_t size</text>
<text x="275" y="190" font-family="Arial" font-size="12">8b</text>
<line x1="0" y1="215" x2="300" y2="215" stroke="#000"/>
<text x="10" y="210" font-family="Arial" font-size="12">void (*confirm)(NWK_DataReq_t*)</text>
<text x="275" y="210" font-family="Arial" font-size="12">16b</text>
<line x1="0" y1="235" x2="300" y2="235" stroke="#000"/>
<text x="10" y="230" font-family="Arial" font-size="12">uint8_t status</text>
<text x="275" y="230" font-family="Arial" font-size="12">8b</text>
<line x1="0" y1="255" x2="300" y2="255" stroke="#000"/>
<text x="10" y="250" font-family="Arial" font-size="12">uint8_t control</text>
<text x="275" y="250" font-family="Arial" font-size="12">8b</text>
</g>
<line x1="175" y1="110" x2="350" y2="185" stroke="#000" stroke-width="2" marker-end="url(#arrow)"/>
</svg>
